<svg width="40" height="36" viewBox="0 0 40 36" fill="none" xmlns="http://www.w3.org/2000/svg">
<rect width="40" height="36" fill="#1E1E1E"/>
<g clip-path="url(#clip0_0_1)">
<path d="M1.25775 19.8502C-0.9477 21.4817 0.549248 24.9741 3.25195 24.5016L11.2717 23.0988C11.6094 23.0398 11.9555 23.0481 12.2901 23.1233C12.6246 23.1985 12.941 23.3391 13.2209 23.5371C13.5009 23.7351 13.7389 23.9865 13.9213 24.2768C14.1037 24.5672 14.2269 24.8908 14.2837 25.2289L15.6838 33.5535C16.1369 36.2497 19.9101 36.509 20.7278 33.9005L29.9624 4.4575C30.7157 2.0564 27.9578 0.092751 25.935 1.5897L1.25775 19.8502Z" fill="#8711C1"/>
<path d="M16.1116 5.52481C16.6881 5.11401 16.5347 4.21896 15.8542 4.02396L2.34522 0.155157C1.57692 -0.0651932 0.960716 0.805806 1.42417 1.45711L7.79416 10.4089C7.85853 10.4994 7.9401 10.5763 8.03421 10.6352C8.12832 10.6942 8.23312 10.734 8.34263 10.7524C8.45213 10.7708 8.56419 10.7675 8.6724 10.7426C8.78061 10.7176 8.88285 10.6716 8.97326 10.6072L16.1116 5.52481Z" fill="#8711C1"/>
<path d="M37.9405 27.4584C38.7075 27.6833 39.3295 26.8155 38.87 26.1616L30.7944 14.6618C30.3875 14.0827 29.4911 14.2302 29.2916 14.9095L26.8248 23.3179C26.7618 23.5329 26.7867 23.7641 26.8941 23.9607C27.0015 24.1573 27.1826 24.3032 27.3975 24.3663L37.9405 27.4584Z" fill="#8711C1"/>
</g>
<defs>
<clipPath id="clip0_0_1">
<rect width="40" height="36" fill="white"/>
</clipPath>
</defs>
</svg>
